# xmcd
#
# Track frame offsets:
#	150
#	17366
#	34331
#	59593
#	77973
#	96020
#	114041
#	135548
#	152789
#
# Disc length: 2316 seconds
#
# Revision: 21
# Processed by: cddbd v1.5.2PL0 Copyright (c) Steve Scherf et al.
# Submitted via: Jack! The Knife 20 Magnifico
#
DISCID=68090a09
DTITLE=Children Of Bodom - Follow The Reaper
DYEAR=2001
DGENRE=Metal
TTITLE0=Follow The Reaper
TTITLE1=Bodom After Midnight
TTITLE2=Children Of Decadence
TTITLE3=Everytime I Die
TTITLE4=Mask Of Sanity
TTITLE5=Taste Of My Scythe
TTITLE6=Hate Me!
TTITLE7=Northern Comfort
TTITLE8=Kissing The Shadows
EXTD=Peter Tägtgren and Children of Bodom
EXTT0=Alexi Laiho
EXTT1=Alexi Laiho
EXTT2=Alexi Laiho
EXTT3=Alexi Laiho
EXTT4=Alexi Laiho
EXTT5=Alexi Laiho
EXTT6=Alexi Laiho
EXTT7=Alexi Laiho
EXTT8=Alexi Laiho
PLAYORDER=
